<?xml version="1.0" encoding="UTF-8" standalone="no"?>
<!DOCTYPE svg PUBLIC "-//W3C//DTD SVG 1.1//EN" "http://www.w3.org/Graphics/SVG/1.1/DTD/svg11.dtd">
<svg version="1.1" xmlns="http://www.w3.org/2000/svg" xmlns:xlink="http://www.w3.org/1999/xlink" preserveAspectRatio="xMidYMid meet" viewBox="0 0 640 640" width="640" height="640"><defs><path d="M573.06 169.86C573.06 241.66 514.08 299.96 441.43 299.96C368.78 299.96 309.8 241.66 309.8 169.86C309.8 98.05 368.78 39.75 441.43 39.75C514.08 39.75 573.06 98.05 573.06 169.86Z" id="e4in1zCKKX"></path><radialGradient id="gradientdqzIq8ikt" gradientUnits="userSpaceOnUse" cx="438.88" cy="175.47" dx="438.88" dy="347.51" r="172.04"><stop style="stop-color: #ddf136;stop-opacity: 1" offset="0%"></stop><stop style="stop-color: #be8c0c;stop-opacity: 1" offset="100%"></stop></radialGradient><path d="M546.77 115.14C553.4 115.14 558.78 120.52 558.78 127.15C558.78 130.05 558.78 126.76 558.78 129.66C558.78 136.3 553.4 141.67 546.77 141.67C502.44 141.67 381.44 141.67 337.11 141.67C330.48 141.67 325.1 136.3 325.1 129.66C325.1 126.76 325.1 130.05 325.1 127.15C325.1 120.52 330.48 115.14 337.11 115.14C381.44 115.14 502.44 115.14 546.77 115.14Z" id="ampAGF3Zm"></path><radialGradient id="gradientc2gft85Ag2" gradientUnits="userSpaceOnUse" cx="410.54" cy="128.41" dx="327.41" dy="128.41" r="83.12"><stop style="stop-color: #ecd256;stop-opacity: 1" offset="0%"></stop><stop style="stop-color: #e3b423;stop-opacity: 1" offset="100%"></stop></radialGradient><path d="M519.08 272.85C519.08 279.37 513.8 284.65 507.28 284.65C504.34 284.65 507.29 284.65 504.35 284.65C497.83 284.65 492.55 279.37 492.55 272.85C492.55 229.3 492.55 110.42 492.55 66.86C492.55 60.34 497.83 55.06 504.35 55.06C507.29 55.06 504.34 55.06 507.28 55.06C513.8 55.06 519.08 60.34 519.08 66.86C519.08 110.42 519.08 229.3 519.08 272.85Z" id="d18d6SwAcs"></path><radialGradient id="gradienta4fraA9tY3" gradientUnits="userSpaceOnUse" cx="505.82" cy="139" dx="505.82" dy="57.33" r="81.67"><stop style="stop-color: #ecd256;stop-opacity: 1" offset="0%"></stop><stop style="stop-color: #e3b423;stop-opacity: 1" offset="100%"></stop></radialGradient><path d="M516.56 68C521.28 68 525.1 71.82 525.1 76.54C525.1 80.14 525.1 82.38 525.1 85.98C525.1 90.7 521.28 94.53 516.56 94.53C485 94.53 398.88 94.53 367.32 94.53C362.6 94.53 358.78 90.7 358.78 85.98C358.78 82.38 358.78 80.14 358.78 76.54C358.78 71.82 362.6 68 367.32 68C398.88 68 485 68 516.56 68Z" id="b1oUDLzAN"></path><radialGradient id="gradientdgHNdVqry" gradientUnits="userSpaceOnUse" cx="419.59" cy="81.26" dx="360.42" dy="81.26" r="59.17"><stop style="stop-color: #ecd256;stop-opacity: 1" offset="0%"></stop><stop style="stop-color: #e3b423;stop-opacity: 1" offset="100%"></stop></radialGradient><path d="M554.69 159.02C562.02 159.02 567.96 164.96 567.96 172.28C567.96 174.94 567.96 169.63 567.96 172.28C567.96 179.61 562.02 185.55 554.69 185.55C505.71 185.55 372.04 185.55 323.06 185.55C315.73 185.55 309.8 179.61 309.8 172.28C309.8 169.63 309.8 174.94 309.8 172.28C309.8 164.96 315.73 159.02 323.06 159.02C372.04 159.02 505.71 159.02 554.69 159.02Z" id="b127D8RJHt"></path><radialGradient id="gradientbXbl576FJ" gradientUnits="userSpaceOnUse" cx="404.18" cy="172.28" dx="312.35" dy="172.28" r="91.84"><stop style="stop-color: #ecd256;stop-opacity: 1" offset="0%"></stop><stop style="stop-color: #e3b423;stop-opacity: 1" offset="100%"></stop></radialGradient><path d="M455.2 284.3C455.2 291.54 449.34 297.41 442.1 297.41C439.41 297.41 444.47 297.41 441.78 297.41C434.54 297.41 428.67 291.54 428.67 284.3C428.67 235.9 428.67 103.81 428.67 55.41C428.67 48.17 434.54 42.31 441.78 42.31C444.47 42.31 439.41 42.31 442.1 42.31C449.34 42.31 455.2 48.17 455.2 55.41C455.2 103.81 455.2 235.9 455.2 284.3Z" id="a1ILAWToBd"></path><radialGradient id="gradienta4zgdRUOGs" gradientUnits="userSpaceOnUse" cx="441.94" cy="135.57" dx="441.94" dy="44.83" r="90.75"><stop style="stop-color: #ecd256;stop-opacity: 1" offset="0%"></stop><stop style="stop-color: #e3b423;stop-opacity: 1" offset="100%"></stop></radialGradient><path d="M503.38 257.79C507.37 257.79 510.61 261.03 510.61 265.03C510.61 268.89 510.61 273.23 510.61 277.09C510.61 281.08 507.37 284.32 503.38 284.32C476.66 284.32 403.75 284.32 377.03 284.32C373.04 284.32 369.8 281.08 369.8 277.09C369.8 273.23 369.8 268.89 369.8 265.03C369.8 261.03 373.04 257.79 377.03 257.79C403.75 257.79 476.66 257.79 503.38 257.79Z" id="b7EvnMbQRP"></path><radialGradient id="gradientbdZjwTR1" gradientUnits="userSpaceOnUse" cx="421.28" cy="271.06" dx="371.19" dy="271.06" r="50.09"><stop style="stop-color: #ecd256;stop-opacity: 1" offset="0%"></stop><stop style="stop-color: #e3b423;stop-opacity: 1" offset="100%"></stop></radialGradient><path d="M396.33 272.85C396.33 279.37 391.04 284.65 384.53 284.65C381.58 284.65 384.54 284.65 381.59 284.65C375.08 284.65 369.8 279.37 369.8 272.85C369.8 229.3 369.8 110.42 369.8 66.86C369.8 60.34 375.08 55.06 381.59 55.06C384.54 55.06 381.58 55.06 384.53 55.06C391.04 55.06 396.33 60.34 396.33 66.86C396.33 110.42 396.33 229.3 396.33 272.85Z" id="b2I3SW7EG5"></path><radialGradient id="gradiente4zKvrBIDY" gradientUnits="userSpaceOnUse" cx="383.06" cy="139" dx="383.06" dy="57.33" r="81.67"><stop style="stop-color: #ecd256;stop-opacity: 1" offset="0%"></stop><stop style="stop-color: #e3b423;stop-opacity: 1" offset="100%"></stop></radialGradient><path d="M546.87 208.2C553.45 208.2 558.78 213.53 558.78 220.1C558.78 223.03 558.78 219.9 558.78 222.83C558.78 229.4 553.45 234.73 546.87 234.73C502.93 234.73 382.99 234.73 339.04 234.73C332.47 234.73 327.14 229.4 327.14 222.83C327.14 219.9 327.14 223.03 327.14 220.1C327.14 213.53 332.47 208.2 339.04 208.2C382.99 208.2 502.93 208.2 546.87 208.2Z" id="baB7qoRJS"></path><radialGradient id="gradientbu3BlH8h1" gradientUnits="userSpaceOnUse" cx="411.83" cy="221.47" dx="329.43" dy="221.47" r="82.4"><stop style="stop-color: #ecd256;stop-opacity: 1" offset="0%"></stop><stop style="stop-color: #e3b423;stop-opacity: 1" offset="100%"></stop></radialGradient><path d="M413.97 151.95C405.01 159.64 395.08 166.11 384.43 171.19C376.52 174.96 380.75 172.94 375.82 175.29C357.13 184.21 345.78 203.62 347.17 224.28C347.75 232.85 347.18 224.43 347.76 233.02C349.12 253.1 363.9 269.71 383.68 273.39C396.76 275.82 384.18 273.48 392.71 275.07C423.37 280.76 452.56 259.66 456.76 228.75C457.24 225.21 455.22 240.11 456.76 228.75C458.34 217.1 462.49 205.94 468.9 196.09C472.7 190.25 470.4 193.78 473.21 189.47C482.23 175.61 482.72 157.86 474.47 143.52C473.87 142.48 479.59 152.43 477.51 148.82C473.63 142.06 467.33 137.02 459.88 134.7C456.08 133.53 465.86 136.56 464.46 136.13C449.8 131.58 433.83 134.89 422.18 144.89C417.84 148.62 419.35 147.32 413.97 151.95Z" id="avyTS5VE8"></path><radialGradient id="gradientd1kQNdgM0z" gradientUnits="userSpaceOnUse" cx="389.17" cy="199.91" dx="286.33" dy="326.91" r="163.42"><stop style="stop-color: #d8ef6b;stop-opacity: 1" offset="0%"></stop><stop style="stop-color: #3e5602;stop-opacity: 1" offset="100%"></stop></radialGradient></defs><g><g><g><g><filter id="shadow10017193" x="300.8" y="30.75" width="282.27" height="279.2" filterUnits="userSpaceOnUse" primitiveUnits="userSpaceOnUse"><feFlood></feFlood><feComposite in2="SourceAlpha" operator="in"></feComposite><feGaussianBlur stdDeviation="1"></feGaussianBlur><feOffset dx="1" dy="1" result="afterOffset"></feOffset><feFlood flood-color="#000000" flood-opacity="0.5"></feFlood><feComposite in2="afterOffset" operator="in"></feComposite><feMorphology operator="dilate" radius="1"></feMorphology><feComposite in2="SourceAlpha" operator="out"></feComposite></filter><path d="M573.06 169.86C573.06 241.66 514.08 299.96 441.43 299.96C368.78 299.96 309.8 241.66 309.8 169.86C309.8 98.05 368.78 39.75 441.43 39.75C514.08 39.75 573.06 98.05 573.06 169.86Z" id="a1dEvdkNP1" fill="white" fill-opacity="1" filter="url(#shadow10017193)"></path></g><use xlink:href="#e4in1zCKKX" opacity="1" fill="url(#gradientdqzIq8ikt)"></use><g><filter id="shadow14526483" x="300.8" y="30.75" width="282.27" height="279.2" filterUnits="userSpaceOnUse" primitiveUnits="userSpaceOnUse"><feFlood></feFlood><feComposite in2="SourceAlpha" operator="out"></feComposite><feGaussianBlur stdDeviation="1"></feGaussianBlur><feOffset dx="1" dy="1" result="afterOffset"></feOffset><feFlood flood-color="#ffffff" flood-opacity="0.8"></feFlood><feComposite in2="afterOffset" operator="in"></feComposite><feMorphology operator="dilate" radius="1"></feMorphology><feComposite in2="SourceAlpha" operator="in"></feComposite></filter><path d="M573.06 169.86C573.06 241.66 514.08 299.96 441.43 299.96C368.78 299.96 309.8 241.66 309.8 169.86C309.8 98.05 368.78 39.75 441.43 39.75C514.08 39.75 573.06 98.05 573.06 169.86Z" id="g2riROmgbg" fill="white" fill-opacity="1" filter="url(#shadow14526483)"></path></g></g><g><use xlink:href="#ampAGF3Zm" opacity="1" fill="url(#gradientc2gft85Ag2)"></use></g><g><use xlink:href="#d18d6SwAcs" opacity="1" fill="url(#gradienta4fraA9tY3)"></use></g><g><use xlink:href="#b1oUDLzAN" opacity="1" fill="url(#gradientdgHNdVqry)"></use></g><g><use xlink:href="#b127D8RJHt" opacity="1" fill="url(#gradientbXbl576FJ)"></use></g><g><use xlink:href="#a1ILAWToBd" opacity="1" fill="url(#gradienta4zgdRUOGs)"></use></g><g><use xlink:href="#b7EvnMbQRP" opacity="1" fill="url(#gradientbdZjwTR1)"></use></g><g><use xlink:href="#b2I3SW7EG5" opacity="1" fill="url(#gradiente4zKvrBIDY)"></use></g><g><use xlink:href="#baB7qoRJS" opacity="1" fill="url(#gradientbu3BlH8h1)"></use></g><g><g><filter id="shadow3545388" x="338.06" y="125.12" width="152.27" height="160.87" filterUnits="userSpaceOnUse" primitiveUnits="userSpaceOnUse"><feFlood></feFlood><feComposite in2="SourceAlpha" operator="in"></feComposite><feGaussianBlur stdDeviation="1"></feGaussianBlur><feOffset dx="1" dy="1" result="afterOffset"></feOffset><feFlood flood-color="#000000" flood-opacity="0.5"></feFlood><feComposite in2="afterOffset" operator="in"></feComposite><feMorphology operator="dilate" radius="1"></feMorphology><feComposite in2="SourceAlpha" operator="out"></feComposite></filter><path d="M413.97 151.95C405.01 159.64 395.08 166.11 384.43 171.19C376.52 174.96 380.75 172.94 375.82 175.29C357.13 184.21 345.78 203.62 347.17 224.28C347.75 232.85 347.18 224.43 347.76 233.02C349.12 253.1 363.9 269.71 383.68 273.39C396.76 275.82 384.18 273.48 392.71 275.07C423.37 280.76 452.56 259.66 456.76 228.75C457.24 225.21 455.22 240.11 456.76 228.75C458.34 217.1 462.49 205.94 468.9 196.09C472.7 190.25 470.4 193.78 473.21 189.47C482.23 175.61 482.72 157.86 474.47 143.52C473.87 142.48 479.59 152.43 477.51 148.82C473.63 142.06 467.33 137.02 459.88 134.7C456.08 133.53 465.86 136.56 464.46 136.13C449.8 131.58 433.83 134.89 422.18 144.89C417.84 148.62 419.35 147.32 413.97 151.95Z" id="d34DeYF4Xq" fill="white" fill-opacity="1" filter="url(#shadow3545388)"></path></g><use xlink:href="#avyTS5VE8" opacity="1" fill="url(#gradientd1kQNdgM0z)"></use><g><filter id="shadow532746" x="338.06" y="125.12" width="152.27" height="160.87" filterUnits="userSpaceOnUse" primitiveUnits="userSpaceOnUse"><feFlood></feFlood><feComposite in2="SourceAlpha" operator="out"></feComposite><feGaussianBlur stdDeviation="1"></feGaussianBlur><feOffset dx="1" dy="1" result="afterOffset"></feOffset><feFlood flood-color="#ffffff" flood-opacity="0.8"></feFlood><feComposite in2="afterOffset" operator="in"></feComposite><feMorphology operator="dilate" radius="1"></feMorphology><feComposite in2="SourceAlpha" operator="in"></feComposite></filter><path d="M413.97 151.95C405.01 159.64 395.08 166.11 384.43 171.19C376.52 174.96 380.75 172.94 375.82 175.29C357.13 184.21 345.78 203.62 347.17 224.28C347.75 232.85 347.18 224.43 347.76 233.02C349.12 253.1 363.9 269.71 383.68 273.39C396.76 275.82 384.18 273.48 392.71 275.07C423.37 280.76 452.56 259.66 456.76 228.75C457.24 225.21 455.22 240.11 456.76 228.75C458.34 217.1 462.49 205.94 468.9 196.09C472.7 190.25 470.4 193.78 473.21 189.47C482.23 175.61 482.72 157.86 474.47 143.52C473.87 142.48 479.59 152.43 477.51 148.82C473.63 142.06 467.33 137.02 459.88 134.7C456.08 133.53 465.86 136.56 464.46 136.13C449.8 131.58 433.83 134.89 422.18 144.89C417.84 148.62 419.35 147.32 413.97 151.95Z" id="a3Apw8i27H" fill="white" fill-opacity="1" filter="url(#shadow532746)"></path></g></g></g></g></svg>